<?xml version="1.0" encoding="UTF-8" standalone="no"?>
<!-- Created with Inkscape (http://www.inkscape.org/) -->

<svg
   version="1.1"
   id="svg2"
   width="437.30389"
   height="363.78833"
   viewBox="0 0 437.30389 363.78833"
   xmlns="http://www.w3.org/2000/svg"
   xmlns:svg="http://www.w3.org/2000/svg">
  <defs
     id="defs6" />
  <g
     id="g8"
     transform="translate(-293.44326,-330.18423)">
    <path
       style="fill:#ffffff"
       d="m 418,693.56218 c 0,-0.2408 3.66595,-6.8783 8.14655,-14.75 4.4806,-7.8717 22.64458,-39.96218 40.36439,-71.31218 17.71982,-31.35 44.71385,-79.05 59.98674,-106 15.27288,-26.95 34.79641,-61.55876 43.3856,-76.90835 8.5892,-15.34959 16.84071,-29.13897 18.3367,-30.64306 5.42581,-5.45518 17.63966,-6.16401 29.76244,-1.72725 5.08978,1.86279 9.49697,5.98365 56.84202,53.14901 29.31962,29.20834 52.17368,52.76675 53.30522,54.94804 2.91898,5.627 3.40791,12.30821 1.40978,19.2646 -1.68695,5.87303 -2.07225,6.29045 -51.8405,56.16076 -36.78173,36.85717 -51.3476,50.82046 -54.66993,52.4083 -3.06798,1.46627 -6.46458,2.16954 -10.52901,2.18003 -14.66345,0.0378 -25.5,-10.85998 -25.5,-25.6442 0,-11.08013 -0.93439,-9.89797 41.65837,-52.70473 l 39.31929,-39.51684 -32.95,-32.93866 c -18.1225,-18.11625 -33.11755,-32.73367 -33.32233,-32.48315 -0.20478,0.25053 -4.80161,8.3305 -10.21516,17.9555 -9.66367,17.18146 -54.31209,95.84487 -104.56201,184.22162 L 461.5,693.94325 l -21.75,0.0284 C 427.7875,693.98723 418,693.80298 418,693.56218 Z m -9,-61.16682 c -3.025,-0.81017 -7.08299,-2.51778 -9.01776,-3.79469 -5.47879,-3.61592 -102.23689,-101.24626 -104.46104,-105.40272 -2.77635,-5.18842 -2.76924,-17.2165 0.0133,-22.43148 1.09564,-2.05345 24.2611,-26.07306 51.4788,-53.37693 36.26619,-36.38101 50.63162,-50.1605 53.77224,-51.57897 5.98455,-2.70296 15.91479,-2.61816 21.70608,0.18536 12.40906,6.00712 18.13414,23.09099 11.84284,35.3395 -1.00894,1.9643 -19.15621,20.95934 -40.32727,42.21119 l -38.49283,38.63974 31.98245,31.33387 c 17.59035,17.23363 32.016,31.25419 32.05699,31.15682 0.76072,-1.80698 33.31244,-59.45107 58.26428,-103.17705 17.88959,-31.35 43.04685,-75.675 55.90502,-98.5 12.85817,-22.825 23.72464,-41.8465 24.14771,-42.27 0.42308,-0.42351 10.47421,-0.64851 22.33586,-0.5 l 21.56664,0.27 -6.21105,11 c -21.04185,37.26589 -57.17515,100.99316 -70.59138,124.5 -30.80798,53.97928 -82.32775,145.78249 -86.53065,154.18919 -3.69758,7.39593 -7.04842,10.61698 -12.83131,12.33432 -6.08227,1.80624 -9.48423,1.77999 -16.60889,-0.12815 z"
       id="path293" />
  </g>
</svg>

